{
	"patcher" : 	{
		"fileversion" : 1,
		"appversion" : 		{
			"major" : 8,
			"minor" : 2,
			"revision" : 2,
			"architecture" : "x64",
			"modernui" : 1
		}
,
		"classnamespace" : "box",
		"rect" : [ 289.0, 120.0, 717.0, 742.0 ],
		"bglocked" : 0,
		"openinpresentation" : 0,
		"default_fontsize" : 12.0,
		"default_fontface" : 0,
		"default_fontname" : "Arial",
		"gridonopen" : 1,
		"gridsize" : [ 15.0, 15.0 ],
		"gridsnaponopen" : 1,
		"objectsnaponopen" : 1,
		"statusbarvisible" : 2,
		"toolbarvisible" : 1,
		"lefttoolbarpinned" : 0,
		"toptoolbarpinned" : 0,
		"righttoolbarpinned" : 0,
		"bottomtoolbarpinned" : 0,
		"toolbars_unpinned_last_save" : 0,
		"tallnewobj" : 0,
		"boxanimatetime" : 200,
		"enablehscroll" : 1,
		"enablevscroll" : 1,
		"devicewidth" : 0.0,
		"description" : "",
		"digest" : "",
		"tags" : "",
		"style" : "",
		"subpatcher_template" : "newtemplate",
		"assistshowspatchername" : 0,
		"boxes" : [ 			{
				"box" : 				{
					"fontface" : 0,
					"fontname" : "Arial",
					"fontsize" : 12.0,
					"id" : "obj-15",
					"maxclass" : "number~",
					"mode" : 2,
					"numinlets" : 2,
					"numoutlets" : 2,
					"outlettype" : [ "signal", "float" ],
					"patching_rect" : [ 239.0, 515.0, 56.0, 22.0 ],
					"sig" : 0.0
				}

			}
, 			{
				"box" : 				{
					"hidden" : 1,
					"id" : "obj-16",
					"maxclass" : "newobj",
					"numinlets" : 1,
					"numoutlets" : 1,
					"outlettype" : [ "bang" ],
					"patching_rect" : [ 413.5, 4.0, 58.0, 22.0 ],
					"text" : "loadbang"
				}

			}
, 			{
				"box" : 				{
					"hidden" : 1,
					"id" : "obj-1",
					"maxclass" : "message",
					"numinlets" : 2,
					"numoutlets" : 1,
					"outlettype" : [ "" ],
					"patching_rect" : [ 413.5, 36.0, 172.0, 22.0 ],
					"text" : "target petal, samplerate 96kHz"
				}

			}
, 			{
				"box" : 				{
					"args" : [ "petal" ],
					"bgmode" : 0,
					"border" : 0,
					"clickthrough" : 0,
					"enablehscroll" : 0,
					"enablevscroll" : 0,
					"id" : "obj-83",
					"lockeddragscroll" : 0,
					"lockedsize" : 0,
					"maxclass" : "bpatcher",
					"name" : "oopsy.maxpat",
					"numinlets" : 1,
					"numoutlets" : 0,
					"offset" : [ 0.0, 0.0 ],
					"patching_rect" : [ 413.5, 70.0, 128.0, 128.0 ],
					"viewvisibility" : 1
				}

			}
, 			{
				"box" : 				{
					"id" : "obj-138",
					"maxclass" : "comment",
					"numinlets" : 1,
					"numoutlets" : 0,
					"patching_rect" : [ 239.0, 704.0, 217.0, 20.0 ],
					"text" : "IDMPEDALS 8-tap stereo chorus effect"
				}

			}
, 			{
				"box" : 				{
					"id" : "obj-14",
					"lastchannelcount" : 0,
					"maxclass" : "live.gain~",
					"numinlets" : 2,
					"numoutlets" : 5,
					"outlettype" : [ "signal", "signal", "", "float", "list" ],
					"parameter_enable" : 1,
					"patching_rect" : [ 180.5, 515.0, 48.0, 136.0 ],
					"saved_attribute_attributes" : 					{
						"valueof" : 						{
							"parameter_longname" : "live.gain~",
							"parameter_mmax" : 6.0,
							"parameter_mmin" : -70.0,
							"parameter_shortname" : "live.gain~",
							"parameter_type" : 0,
							"parameter_unitstyle" : 4
						}

					}
,
					"varname" : "live.gain~"
				}

			}
, 			{
				"box" : 				{
					"bgmode" : 0,
					"border" : 1,
					"clickthrough" : 0,
					"enablehscroll" : 0,
					"enablevscroll" : 0,
					"id" : "obj-8",
					"lockeddragscroll" : 0,
					"lockedsize" : 0,
					"maxclass" : "bpatcher",
					"name" : "testinput_bpatch.maxpat",
					"numinlets" : 0,
					"numoutlets" : 1,
					"offset" : [ 0.0, 0.0 ],
					"outlettype" : [ "signal" ],
					"patching_rect" : [ 10.0, 4.0, 386.0, 300.0 ],
					"viewvisibility" : 1
				}

			}
, 			{
				"box" : 				{
					"id" : "obj-21",
					"maxclass" : "live.dial",
					"numinlets" : 1,
					"numoutlets" : 2,
					"outlettype" : [ "", "float" ],
					"parameter_enable" : 1,
					"patching_rect" : [ 413.25, 331.0, 41.0, 48.0 ],
					"saved_attribute_attributes" : 					{
						"valueof" : 						{
							"parameter_longname" : "breadth",
							"parameter_mmax" : 2400.0,
							"parameter_mmin" : 240.0,
							"parameter_shortname" : "breadth",
							"parameter_type" : 0,
							"parameter_unitstyle" : 1
						}

					}
,
					"varname" : "live.dial[1]"
				}

			}
, 			{
				"box" : 				{
					"id" : "obj-22",
					"maxclass" : "message",
					"numinlets" : 2,
					"numoutlets" : 1,
					"outlettype" : [ "" ],
					"patching_rect" : [ 413.25, 388.0, 105.0, 22.0 ],
					"text" : "knob5_breadth $1"
				}

			}
, 			{
				"box" : 				{
					"id" : "obj-10",
					"maxclass" : "live.dial",
					"numinlets" : 1,
					"numoutlets" : 2,
					"outlettype" : [ "", "float" ],
					"parameter_enable" : 1,
					"patching_rect" : [ 520.25, 331.0, 41.0, 48.0 ],
					"saved_attribute_attributes" : 					{
						"valueof" : 						{
							"parameter_longname" : "taps",
							"parameter_mmax" : 1.0,
							"parameter_shortname" : "taps",
							"parameter_type" : 0,
							"parameter_unitstyle" : 1
						}

					}
,
					"varname" : "live.dial"
				}

			}
, 			{
				"box" : 				{
					"id" : "obj-12",
					"maxclass" : "message",
					"numinlets" : 2,
					"numoutlets" : 1,
					"outlettype" : [ "" ],
					"patching_rect" : [ 520.25, 388.0, 87.0, 22.0 ],
					"text" : "knob6_taps $1"
				}

			}
, 			{
				"box" : 				{
					"id" : "obj-11",
					"maxclass" : "comment",
					"numinlets" : 1,
					"numoutlets" : 0,
					"patching_rect" : [ 642.25, 343.0, 55.0, 20.0 ],
					"text" : "< vibrato"
				}

			}
, 			{
				"box" : 				{
					"id" : "obj-6",
					"maxclass" : "toggle",
					"numinlets" : 1,
					"numoutlets" : 1,
					"outlettype" : [ "int" ],
					"parameter_enable" : 0,
					"patching_rect" : [ 609.25, 343.0, 24.0, 24.0 ]
				}

			}
, 			{
				"box" : 				{
					"id" : "obj-9",
					"maxclass" : "message",
					"numinlets" : 2,
					"numoutlets" : 1,
					"outlettype" : [ "" ],
					"patching_rect" : [ 609.25, 388.0, 47.0, 22.0 ],
					"text" : "sw5 $1"
				}

			}
, 			{
				"box" : 				{
					"id" : "obj-7",
					"maxclass" : "toggle",
					"numinlets" : 1,
					"numoutlets" : 1,
					"outlettype" : [ "int" ],
					"parameter_enable" : 0,
					"patching_rect" : [ 181.5, 343.0, 24.0, 24.0 ]
				}

			}
, 			{
				"box" : 				{
					"id" : "obj-5",
					"maxclass" : "message",
					"numinlets" : 2,
					"numoutlets" : 1,
					"outlettype" : [ "" ],
					"patching_rect" : [ 181.5, 388.0, 47.0, 22.0 ],
					"text" : "sw1 $1"
				}

			}
, 			{
				"box" : 				{
					"id" : "obj-2",
					"maxclass" : "live.dial",
					"numinlets" : 1,
					"numoutlets" : 2,
					"outlettype" : [ "", "float" ],
					"parameter_enable" : 1,
					"patching_rect" : [ 230.5, 331.0, 41.0, 48.0 ],
					"saved_attribute_attributes" : 					{
						"valueof" : 						{
							"parameter_longname" : "depth",
							"parameter_mmax" : 1.0,
							"parameter_shortname" : "depth",
							"parameter_type" : 0,
							"parameter_unitstyle" : 1
						}

					}
,
					"varname" : "live.dial[3]"
				}

			}
, 			{
				"box" : 				{
					"id" : "obj-73",
					"maxclass" : "message",
					"numinlets" : 2,
					"numoutlets" : 1,
					"outlettype" : [ "" ],
					"patching_rect" : [ 327.5, 388.0, 85.0, 22.0 ],
					"text" : "knob4_rate $1"
				}

			}
, 			{
				"box" : 				{
					"id" : "obj-66",
					"maxclass" : "message",
					"numinlets" : 2,
					"numoutlets" : 1,
					"outlettype" : [ "" ],
					"patching_rect" : [ 230.5, 388.0, 95.0, 22.0 ],
					"text" : "knob3_depth $1"
				}

			}
, 			{
				"box" : 				{
					"id" : "obj-27",
					"maxclass" : "live.dial",
					"numinlets" : 1,
					"numoutlets" : 2,
					"outlettype" : [ "", "float" ],
					"parameter_enable" : 1,
					"patching_rect" : [ 327.5, 331.0, 41.0, 48.0 ],
					"saved_attribute_attributes" : 					{
						"valueof" : 						{
							"parameter_longname" : "rate",
							"parameter_mmax" : 1.0,
							"parameter_shortname" : "rate",
							"parameter_type" : 0,
							"parameter_unitstyle" : 1
						}

					}
,
					"varname" : "live.dial[2]"
				}

			}
, 			{
				"box" : 				{
					"id" : "obj-28",
					"maxclass" : "ezdac~",
					"numinlets" : 2,
					"numoutlets" : 0,
					"patching_rect" : [ 180.5, 679.0, 45.0, 45.0 ]
				}

			}
, 			{
				"box" : 				{
					"id" : "obj-39",
					"maxclass" : "newobj",
					"numinlets" : 1,
					"numoutlets" : 6,
					"outlettype" : [ "signal", "signal", "signal", "signal", "signal", "signal" ],
					"patcher" : 					{
						"fileversion" : 1,
						"appversion" : 						{
							"major" : 8,
							"minor" : 2,
							"revision" : 2,
							"architecture" : "x64",
							"modernui" : 1
						}
,
						"classnamespace" : "dsp.gen",
						"rect" : [ 276.0, 79.0, 1084.0, 786.0 ],
						"bglocked" : 0,
						"openinpresentation" : 0,
						"default_fontsize" : 12.0,
						"default_fontface" : 0,
						"default_fontname" : "Arial",
						"gridonopen" : 1,
						"gridsize" : [ 15.0, 15.0 ],
						"gridsnaponopen" : 1,
						"objectsnaponopen" : 1,
						"statusbarvisible" : 2,
						"toolbarvisible" : 1,
						"lefttoolbarpinned" : 0,
						"toptoolbarpinned" : 0,
						"righttoolbarpinned" : 0,
						"bottomtoolbarpinned" : 0,
						"toolbars_unpinned_last_save" : 0,
						"tallnewobj" : 0,
						"boxanimatetime" : 200,
						"enablehscroll" : 1,
						"enablevscroll" : 1,
						"devicewidth" : 0.0,
						"description" : "",
						"digest" : "",
						"tags" : "",
						"style" : "",
						"subpatcher_template" : "newtemplate",
						"assistshowspatchername" : 0,
						"boxes" : [ 							{
								"box" : 								{
									"id" : "obj-18",
									"maxclass" : "newobj",
									"numinlets" : 2,
									"numoutlets" : 1,
									"outlettype" : [ "" ],
									"patching_rect" : [ 67.0, 707.0, 29.5, 22.0 ],
									"text" : "+"
								}

							}
, 							{
								"box" : 								{
									"id" : "obj-14",
									"maxclass" : "newobj",
									"numinlets" : 2,
									"numoutlets" : 1,
									"outlettype" : [ "" ],
									"patching_rect" : [ 20.0, 702.0, 29.5, 22.0 ],
									"text" : "+"
								}

							}
, 							{
								"box" : 								{
									"id" : "obj-16",
									"maxclass" : "comment",
									"numinlets" : 1,
									"numoutlets" : 0,
									"patching_rect" : [ 176.0, 661.074066400527954, 83.0, 20.0 ],
									"text" : "gain (0.5 or 1)"
								}

							}
, 							{
								"box" : 								{
									"id" : "obj-12",
									"maxclass" : "newobj",
									"numinlets" : 1,
									"numoutlets" : 1,
									"outlettype" : [ "" ],
									"patching_rect" : [ 86.75, 576.0, 36.0, 22.0 ],
									"text" : "+ 0.5"
								}

							}
, 							{
								"box" : 								{
									"id" : "obj-9",
									"maxclass" : "newobj",
									"numinlets" : 1,
									"numoutlets" : 1,
									"outlettype" : [ "" ],
									"patching_rect" : [ 86.75, 531.0, 25.0, 22.0 ],
									"text" : "/ 2."
								}

							}
, 							{
								"box" : 								{
									"id" : "obj-6",
									"maxclass" : "newobj",
									"numinlets" : 2,
									"numoutlets" : 1,
									"outlettype" : [ "" ],
									"patching_rect" : [ 141.75, 661.074066400527954, 29.5, 22.0 ],
									"text" : "*"
								}

							}
, 							{
								"box" : 								{
									"id" : "obj-3",
									"maxclass" : "newobj",
									"numinlets" : 2,
									"numoutlets" : 1,
									"outlettype" : [ "" ],
									"patching_rect" : [ 86.75, 661.074066400527954, 29.5, 22.0 ],
									"text" : "*"
								}

							}
, 							{
								"box" : 								{
									"id" : "obj-138",
									"maxclass" : "comment",
									"numinlets" : 1,
									"numoutlets" : 0,
									"patching_rect" : [ 97.5, 179.0, 217.0, 20.0 ],
									"text" : "IDMPEDALS 8-tap stereo chorus effect"
								}

							}
, 							{
								"box" : 								{
									"id" : "obj-136",
									"maxclass" : "comment",
									"numinlets" : 1,
									"numoutlets" : 0,
									"patching_rect" : [ 257.0, 402.0, 68.0, 20.0 ],
									"text" : "8-tap delay",
									"textcolor" : [ 0.298039227724075, 0.298039257526398, 0.298039197921753, 1.0 ]
								}

							}
, 							{
								"box" : 								{
									"id" : "obj-132",
									"linecount" : 2,
									"maxclass" : "comment",
									"numinlets" : 1,
									"numoutlets" : 0,
									"patching_rect" : [ 413.0, 81.0, 85.0, 33.0 ],
									"text" : "LFO rate (0.01-5.01Hz)",
									"textcolor" : [ 0.0, 0.0, 0.0, 1.0 ]
								}

							}
, 							{
								"box" : 								{
									"id" : "obj-131",
									"linecount" : 2,
									"maxclass" : "comment",
									"numinlets" : 1,
									"numoutlets" : 0,
									"patching_rect" : [ 630.0, 81.0, 121.0, 33.0 ],
									"text" : "LFO depth\n(+/-1000ish samples)",
									"textcolor" : [ 0.0, 0.0, 0.0, 1.0 ]
								}

							}
, 							{
								"box" : 								{
									"id" : "obj-130",
									"linecount" : 2,
									"maxclass" : "comment",
									"numinlets" : 1,
									"numoutlets" : 0,
									"patching_rect" : [ 769.0, 81.0, 202.0, 33.0 ],
									"text" : "breadth widens the LFO base delay (sim. to \"manual\" on a flanger)",
									"textcolor" : [ 0.0, 0.0, 0.0, 1.0 ]
								}

							}
, 							{
								"box" : 								{
									"id" : "obj-127",
									"maxclass" : "comment",
									"numinlets" : 1,
									"numoutlets" : 0,
									"patching_rect" : [ 110.0, 231.0, 94.0, 20.0 ],
									"text" : "< bypass switch"
								}

							}
, 							{
								"box" : 								{
									"id" : "obj-125",
									"maxclass" : "comment",
									"numinlets" : 1,
									"numoutlets" : 0,
									"patching_rect" : [ 404.75, 649.0, 129.0, 20.0 ],
									"text" : "hold petal lights 2-4 off"
								}

							}
, 							{
								"box" : 								{
									"id" : "obj-123",
									"maxclass" : "comment",
									"numinlets" : 1,
									"numoutlets" : 0,
									"patching_rect" : [ 352.5, 528.0, 174.0, 20.0 ],
									"text" : "gain goes down with more taps",
									"textcolor" : [ 0.0, 0.0, 0.0, 1.0 ]
								}

							}
, 							{
								"box" : 								{
									"id" : "obj-121",
									"maxclass" : "comment",
									"numinlets" : 1,
									"numoutlets" : 0,
									"patching_rect" : [ 769.0, 299.0, 130.0, 20.0 ],
									"text" : "crossfade in more taps",
									"textcolor" : [ 0.0, 0.0, 0.0, 1.0 ]
								}

							}
, 							{
								"box" : 								{
									"id" : "obj-119",
									"linecount" : 2,
									"maxclass" : "comment",
									"numinlets" : 1,
									"numoutlets" : 0,
									"patching_rect" : [ 241.75, 231.0, 113.5, 33.0 ],
									"text" : "detuning of LFOs (made up numbers)",
									"textcolor" : [ 0.0, 0.0, 0.0, 1.0 ]
								}

							}
, 							{
								"box" : 								{
									"color" : [ 0.50195974111557, 0.0, 0.008130922913551, 1.0 ],
									"id" : "obj-112",
									"maxclass" : "newobj",
									"numinlets" : 1,
									"numoutlets" : 1,
									"outlettype" : [ "" ],
									"patching_rect" : [ 363.0, 42.0, 157.0, 22.0 ],
									"text" : "expr 1.0-(sqrt(sqrt(1.0-in1)))"
								}

							}
, 							{
								"box" : 								{
									"color" : [ 0.065417610108852, 0.501814603805542, 0.251001805067062, 1.0 ],
									"id" : "obj-94",
									"maxclass" : "newobj",
									"numinlets" : 1,
									"numoutlets" : 1,
									"outlettype" : [ "" ],
									"patching_rect" : [ 586.5, 42.0, 157.0, 22.0 ],
									"text" : "expr 1.0-(sqrt(sqrt(1.0-in1)))"
								}

							}
, 							{
								"box" : 								{
									"color" : [ 0.50195974111557, 0.0, 0.008130922913551, 1.0 ],
									"id" : "obj-66",
									"maxclass" : "newobj",
									"numinlets" : 1,
									"numoutlets" : 1,
									"outlettype" : [ "" ],
									"patching_rect" : [ 363.0, 81.0, 27.0, 22.0 ],
									"text" : "* 5."
								}

							}
, 							{
								"box" : 								{
									"color" : [ 0.50195974111557, 0.0, 0.008130922913551, 1.0 ],
									"id" : "obj-59",
									"maxclass" : "newobj",
									"numinlets" : 1,
									"numoutlets" : 1,
									"outlettype" : [ "" ],
									"patching_rect" : [ 363.0, 115.0, 42.0, 22.0 ],
									"text" : "+ 0.01"
								}

							}
, 							{
								"box" : 								{
									"color" : [ 0.065417610108852, 0.501814603805542, 0.251001805067062, 1.0 ],
									"id" : "obj-26",
									"maxclass" : "newobj",
									"numinlets" : 1,
									"numoutlets" : 1,
									"outlettype" : [ "" ],
									"patching_rect" : [ 586.5, 115.0, 26.0, 22.0 ],
									"text" : "+ 2"
								}

							}
, 							{
								"box" : 								{
									"color" : [ 0.065417610108852, 0.501814603805542, 0.251001805067062, 1.0 ],
									"id" : "obj-2",
									"maxclass" : "newobj",
									"numinlets" : 1,
									"numoutlets" : 1,
									"outlettype" : [ "" ],
									"patching_rect" : [ 586.5, 81.0, 43.0, 22.0 ],
									"text" : "* 1000"
								}

							}
, 							{
								"box" : 								{
									"color" : [ 0.028541615232825, 0.250918865203857, 0.50196373462677, 1.0 ],
									"id" : "obj-58",
									"maxclass" : "newobj",
									"numinlets" : 1,
									"numoutlets" : 1,
									"outlettype" : [ "" ],
									"patching_rect" : [ 769.0, 230.0, 23.0, 22.0 ],
									"text" : "* 1"
								}

							}
, 							{
								"box" : 								{
									"color" : [ 0.028541615232825, 0.250918865203857, 0.50196373462677, 1.0 ],
									"id" : "obj-57",
									"maxclass" : "newobj",
									"numinlets" : 1,
									"numoutlets" : 1,
									"outlettype" : [ "" ],
									"patching_rect" : [ 769.0, 179.0, 108.0, 22.0 ],
									"text" : "oopsy.ctrl.smooth3"
								}

							}
, 							{
								"box" : 								{
									"color" : [ 0.028541615232825, 0.250918865203857, 0.50196373462677, 1.0 ],
									"id" : "obj-55",
									"linecount" : 2,
									"maxclass" : "newobj",
									"numinlets" : 0,
									"numoutlets" : 1,
									"outlettype" : [ "" ],
									"patching_rect" : [ 769.0, 128.0, 186.0, 35.0 ],
									"text" : "param knob5_breadth @min 240. @max 2400. @default 256"
								}

							}
, 							{
								"box" : 								{
									"color" : [ 0.028541615232825, 0.250918865203857, 0.50196373462677, 1.0 ],
									"id" : "obj-54",
									"maxclass" : "newobj",
									"numinlets" : 1,
									"numoutlets" : 1,
									"outlettype" : [ "" ],
									"patching_rect" : [ 854.0, 230.0, 23.0, 22.0 ],
									"text" : "* 4"
								}

							}
, 							{
								"box" : 								{
									"color" : [ 0.028541615232825, 0.250918865203857, 0.50196373462677, 1.0 ],
									"id" : "obj-53",
									"maxclass" : "newobj",
									"numinlets" : 1,
									"numoutlets" : 1,
									"outlettype" : [ "" ],
									"patching_rect" : [ 824.0, 230.0, 23.0, 22.0 ],
									"text" : "* 3"
								}

							}
, 							{
								"box" : 								{
									"color" : [ 0.028541615232825, 0.250918865203857, 0.50196373462677, 1.0 ],
									"id" : "obj-52",
									"maxclass" : "newobj",
									"numinlets" : 1,
									"numoutlets" : 1,
									"outlettype" : [ "" ],
									"patching_rect" : [ 797.0, 230.0, 23.0, 22.0 ],
									"text" : "* 2"
								}

							}
, 							{
								"box" : 								{
									"color" : [ 0.250980466604233, 0.0, 0.501960754394531, 1.0 ],
									"id" : "obj-49",
									"maxclass" : "newobj",
									"numinlets" : 1,
									"numoutlets" : 1,
									"outlettype" : [ "" ],
									"patching_rect" : [ 961.0, 433.0, 53.0, 22.0 ],
									"text" : "clip 0. 1."
								}

							}
, 							{
								"box" : 								{
									"color" : [ 0.250980466604233, 0.0, 0.501960754394531, 1.0 ],
									"id" : "obj-51",
									"maxclass" : "newobj",
									"numinlets" : 2,
									"numoutlets" : 1,
									"outlettype" : [ "" ],
									"patching_rect" : [ 961.0, 402.0, 94.0, 22.0 ],
									"text" : "scale 0. 1. -3. 1."
								}

							}
, 							{
								"box" : 								{
									"color" : [ 0.250980466604233, 0.0, 0.501960754394531, 1.0 ],
									"id" : "obj-35",
									"maxclass" : "newobj",
									"numinlets" : 1,
									"numoutlets" : 1,
									"outlettype" : [ "" ],
									"patching_rect" : [ 865.0, 433.0, 53.0, 22.0 ],
									"text" : "clip 0. 1."
								}

							}
, 							{
								"box" : 								{
									"color" : [ 0.250980466604233, 0.0, 0.501960754394531, 1.0 ],
									"id" : "obj-48",
									"maxclass" : "newobj",
									"numinlets" : 2,
									"numoutlets" : 1,
									"outlettype" : [ "" ],
									"patching_rect" : [ 865.0, 402.0, 94.0, 22.0 ],
									"text" : "scale 0. 1. -2. 2."
								}

							}
, 							{
								"box" : 								{
									"color" : [ 0.250980466604233, 0.0, 0.501960754394531, 1.0 ],
									"id" : "obj-32",
									"maxclass" : "newobj",
									"numinlets" : 1,
									"numoutlets" : 1,
									"outlettype" : [ "" ],
									"patching_rect" : [ 769.0, 433.0, 53.0, 22.0 ],
									"text" : "clip 0. 1."
								}

							}
, 							{
								"box" : 								{
									"color" : [ 0.250980466604233, 0.0, 0.501960754394531, 1.0 ],
									"id" : "obj-33",
									"maxclass" : "newobj",
									"numinlets" : 2,
									"numoutlets" : 1,
									"outlettype" : [ "" ],
									"patching_rect" : [ 769.0, 402.0, 94.0, 22.0 ],
									"text" : "scale 0. 1. -1. 3."
								}

							}
, 							{
								"box" : 								{
									"color" : [ 0.250980466604233, 0.0, 0.501960754394531, 1.0 ],
									"id" : "obj-31",
									"maxclass" : "newobj",
									"numinlets" : 0,
									"numoutlets" : 1,
									"outlettype" : [ "" ],
									"patching_rect" : [ 548.0, 493.0, 19.0, 22.0 ],
									"text" : "1"
								}

							}
, 							{
								"box" : 								{
									"color" : [ 0.250980466604233, 0.0, 0.501960754394531, 1.0 ],
									"id" : "obj-46",
									"maxclass" : "newobj",
									"numinlets" : 2,
									"numoutlets" : 1,
									"outlettype" : [ "" ],
									"patching_rect" : [ 250.0, 528.0, 97.0, 22.0 ],
									"text" : "scale 0. 1. 1. 0.5"
								}

							}
, 							{
								"box" : 								{
									"color" : [ 0.298039227724075, 0.298039257526398, 0.298039197921753, 1.0 ],
									"id" : "obj-39",
									"maxclass" : "newobj",
									"numinlets" : 2,
									"numoutlets" : 1,
									"outlettype" : [ "" ],
									"patching_rect" : [ 645.875, 528.0, 29.5, 22.0 ],
									"text" : "*"
								}

							}
, 							{
								"box" : 								{
									"color" : [ 0.298039227724075, 0.298039257526398, 0.298039197921753, 1.0 ],
									"id" : "obj-40",
									"maxclass" : "newobj",
									"numinlets" : 2,
									"numoutlets" : 1,
									"outlettype" : [ "" ],
									"patching_rect" : [ 609.5, 528.0, 29.5, 22.0 ],
									"text" : "*"
								}

							}
, 							{
								"box" : 								{
									"color" : [ 0.298039227724075, 0.298039257526398, 0.298039197921753, 1.0 ],
									"id" : "obj-41",
									"maxclass" : "newobj",
									"numinlets" : 2,
									"numoutlets" : 1,
									"outlettype" : [ "" ],
									"patching_rect" : [ 573.5, 528.0, 29.5, 22.0 ],
									"text" : "*"
								}

							}
, 							{
								"box" : 								{
									"color" : [ 0.298039227724075, 0.298039257526398, 0.298039197921753, 1.0 ],
									"id" : "obj-45",
									"maxclass" : "newobj",
									"numinlets" : 2,
									"numoutlets" : 1,
									"outlettype" : [ "" ],
									"patching_rect" : [ 537.5, 528.0, 29.5, 22.0 ],
									"text" : "*"
								}

							}
, 							{
								"box" : 								{
									"color" : [ 0.298039227724075, 0.298039257526398, 0.298039197921753, 1.0 ],
									"id" : "obj-37",
									"maxclass" : "newobj",
									"numinlets" : 2,
									"numoutlets" : 1,
									"outlettype" : [ "" ],
									"patching_rect" : [ 793.5, 528.0, 29.5, 22.0 ],
									"text" : "*"
								}

							}
, 							{
								"box" : 								{
									"color" : [ 0.298039227724075, 0.298039257526398, 0.298039197921753, 1.0 ],
									"id" : "obj-38",
									"maxclass" : "newobj",
									"numinlets" : 2,
									"numoutlets" : 1,
									"outlettype" : [ "" ],
									"patching_rect" : [ 758.375, 528.0, 29.5, 22.0 ],
									"text" : "*"
								}

							}
, 							{
								"box" : 								{
									"color" : [ 0.298039227724075, 0.298039257526398, 0.298039197921753, 1.0 ],
									"id" : "obj-36",
									"maxclass" : "newobj",
									"numinlets" : 2,
									"numoutlets" : 1,
									"outlettype" : [ "" ],
									"patching_rect" : [ 720.375, 528.0, 29.5, 22.0 ],
									"text" : "*"
								}

							}
, 							{
								"box" : 								{
									"color" : [ 0.298039227724075, 0.298039257526398, 0.298039197921753, 1.0 ],
									"id" : "obj-34",
									"maxclass" : "newobj",
									"numinlets" : 2,
									"numoutlets" : 1,
									"outlettype" : [ "" ],
									"patching_rect" : [ 683.375, 528.0, 29.5, 22.0 ],
									"text" : "*"
								}

							}
, 							{
								"box" : 								{
									"color" : [ 0.250980466604233, 0.0, 0.501960754394531, 1.0 ],
									"id" : "obj-28",
									"maxclass" : "newobj",
									"numinlets" : 0,
									"numoutlets" : 1,
									"outlettype" : [ "" ],
									"patching_rect" : [ 769.0, 324.0, 208.0, 22.0 ],
									"text" : "param knob6_taps @min 0. @max 1."
								}

							}
, 							{
								"box" : 								{
									"color" : [ 0.250980466604233, 0.0, 0.501960754394531, 1.0 ],
									"id" : "obj-29",
									"maxclass" : "newobj",
									"numinlets" : 1,
									"numoutlets" : 1,
									"outlettype" : [ "" ],
									"patching_rect" : [ 769.0, 359.0, 108.0, 22.0 ],
									"text" : "oopsy.ctrl.smooth3"
								}

							}
, 							{
								"box" : 								{
									"id" : "obj-27",
									"linecount" : 3,
									"maxclass" : "comment",
									"numinlets" : 1,
									"numoutlets" : 0,
									"patching_rect" : [ 131.75, 438.0, 68.0, 47.0 ],
									"text" : "\"vibrato\" zeroes dry signal"
								}

							}
, 							{
								"box" : 								{
									"id" : "obj-25",
									"maxclass" : "newobj",
									"numinlets" : 0,
									"numoutlets" : 1,
									"outlettype" : [ "" ],
									"patching_rect" : [ 206.25, 493.0, 19.0, 22.0 ],
									"text" : "0"
								}

							}
, 							{
								"box" : 								{
									"id" : "obj-24",
									"maxclass" : "newobj",
									"numinlets" : 3,
									"numoutlets" : 1,
									"outlettype" : [ "" ],
									"patching_rect" : [ 131.75, 528.0, 110.0, 22.0 ],
									"text" : "?"
								}

							}
, 							{
								"box" : 								{
									"id" : "obj-23",
									"maxclass" : "newobj",
									"numinlets" : 0,
									"numoutlets" : 1,
									"outlettype" : [ "" ],
									"patching_rect" : [ 131.75, 493.0, 67.0, 22.0 ],
									"text" : "param sw5"
								}

							}
, 							{
								"box" : 								{
									"color" : [ 0.50195974111557, 0.0, 0.008130922913551, 1.0 ],
									"id" : "obj-118",
									"maxclass" : "newobj",
									"numinlets" : 1,
									"numoutlets" : 1,
									"outlettype" : [ "" ],
									"patching_rect" : [ 363.0, 155.0, 108.0, 22.0 ],
									"text" : "oopsy.ctrl.smooth3"
								}

							}
, 							{
								"box" : 								{
									"color" : [ 0.059509769082069, 0.501929938793182, 0.998454749584198, 1.0 ],
									"fontname" : "Lato",
									"fontsize" : 12.0,
									"id" : "obj-114",
									"maxclass" : "newobj",
									"numinlets" : 1,
									"numoutlets" : 1,
									"outlettype" : [ "" ],
									"patching_rect" : [ 656.875, 230.0, 40.0, 23.0 ],
									"text" : "* 1.93"
								}

							}
, 							{
								"box" : 								{
									"color" : [ 0.059509769082069, 0.501929938793182, 0.998454749584198, 1.0 ],
									"fontname" : "Lato",
									"fontsize" : 12.0,
									"id" : "obj-115",
									"maxclass" : "newobj",
									"numinlets" : 1,
									"numoutlets" : 1,
									"outlettype" : [ "" ],
									"patching_rect" : [ 559.875, 230.0, 47.0, 23.0 ],
									"text" : "* 1.245"
								}

							}
, 							{
								"box" : 								{
									"color" : [ 0.059509769082069, 0.501929938793182, 0.998454749584198, 1.0 ],
									"fontname" : "Lato",
									"fontsize" : 12.0,
									"id" : "obj-116",
									"maxclass" : "newobj",
									"numinlets" : 1,
									"numoutlets" : 1,
									"outlettype" : [ "" ],
									"patching_rect" : [ 458.0, 230.0, 40.0, 23.0 ],
									"text" : "* 0.48"
								}

							}
, 							{
								"box" : 								{
									"color" : [ 0.059509769082069, 0.501929938793182, 0.998454749584198, 1.0 ],
									"fontname" : "Lato",
									"fontsize" : 12.0,
									"id" : "obj-117",
									"maxclass" : "newobj",
									"numinlets" : 1,
									"numoutlets" : 1,
									"outlettype" : [ "" ],
									"patching_rect" : [ 363.0, 230.0, 24.0, 23.0 ],
									"text" : "* 1"
								}

							}
, 							{
								"box" : 								{
									"color" : [ 0.059509769082069, 0.501929938793182, 0.998454749584198, 1.0 ],
									"fontname" : "Lato",
									"fontsize" : 12.0,
									"id" : "obj-96",
									"maxclass" : "newobj",
									"numinlets" : 1,
									"numoutlets" : 1,
									"outlettype" : [ "" ],
									"patching_rect" : [ 704.875, 230.0, 40.0, 23.0 ],
									"text" : "* 2.11"
								}

							}
, 							{
								"box" : 								{
									"color" : [ 0.059509769082069, 0.501929938793182, 0.998454749584198, 1.0 ],
									"fontname" : "Lato",
									"fontsize" : 12.0,
									"id" : "obj-98",
									"maxclass" : "newobj",
									"numinlets" : 2,
									"numoutlets" : 1,
									"outlettype" : [ "" ],
									"patching_rect" : [ 704.875, 304.0, 32.5, 23.0 ],
									"text" : "*"
								}

							}
, 							{
								"box" : 								{
									"color" : [ 0.059509769082069, 0.501929938793182, 0.998454749584198, 1.0 ],
									"fontname" : "Lato",
									"fontsize" : 12.0,
									"id" : "obj-99",
									"maxclass" : "newobj",
									"numinlets" : 2,
									"numoutlets" : 1,
									"outlettype" : [ "" ],
									"patching_rect" : [ 704.875, 352.0, 32.5, 23.0 ],
									"text" : "+"
								}

							}
, 							{
								"box" : 								{
									"color" : [ 0.059509769082069, 0.501929938793182, 0.998454749584198, 1.0 ],
									"fontname" : "Lato",
									"fontsize" : 12.0,
									"id" : "obj-100",
									"maxclass" : "newobj",
									"numinlets" : 1,
									"numoutlets" : 2,
									"outlettype" : [ "", "" ],
									"patching_rect" : [ 704.875, 262.0, 38.0, 23.0 ],
									"text" : "cycle"
								}

							}
, 							{
								"box" : 								{
									"color" : [ 0.059509769082069, 0.501929938793182, 0.998454749584198, 1.0 ],
									"fontname" : "Lato",
									"fontsize" : 12.0,
									"id" : "obj-101",
									"maxclass" : "newobj",
									"numinlets" : 2,
									"numoutlets" : 1,
									"outlettype" : [ "" ],
									"patching_rect" : [ 656.875, 304.0, 32.5, 23.0 ],
									"text" : "*"
								}

							}
, 							{
								"box" : 								{
									"color" : [ 0.059509769082069, 0.501929938793182, 0.998454749584198, 1.0 ],
									"fontname" : "Lato",
									"fontsize" : 12.0,
									"id" : "obj-102",
									"maxclass" : "newobj",
									"numinlets" : 2,
									"numoutlets" : 1,
									"outlettype" : [ "" ],
									"patching_rect" : [ 656.875, 352.0, 32.5, 23.0 ],
									"text" : "+"
								}

							}
, 							{
								"box" : 								{
									"color" : [ 0.059509769082069, 0.501929938793182, 0.998454749584198, 1.0 ],
									"fontname" : "Lato",
									"fontsize" : 12.0,
									"id" : "obj-103",
									"maxclass" : "newobj",
									"numinlets" : 1,
									"numoutlets" : 2,
									"outlettype" : [ "", "" ],
									"patching_rect" : [ 656.875, 262.0, 38.0, 23.0 ],
									"text" : "cycle"
								}

							}
, 							{
								"box" : 								{
									"color" : [ 0.059509769082069, 0.501929938793182, 0.998454749584198, 1.0 ],
									"fontname" : "Lato",
									"fontsize" : 12.0,
									"id" : "obj-104",
									"maxclass" : "newobj",
									"numinlets" : 1,
									"numoutlets" : 1,
									"outlettype" : [ "" ],
									"patching_rect" : [ 607.875, 230.0, 40.0, 23.0 ],
									"text" : "* 0.81"
								}

							}
, 							{
								"box" : 								{
									"color" : [ 0.059509769082069, 0.501929938793182, 0.998454749584198, 1.0 ],
									"fontname" : "Lato",
									"fontsize" : 12.0,
									"id" : "obj-106",
									"maxclass" : "newobj",
									"numinlets" : 2,
									"numoutlets" : 1,
									"outlettype" : [ "" ],
									"patching_rect" : [ 607.875, 304.0, 32.5, 23.0 ],
									"text" : "*"
								}

							}
, 							{
								"box" : 								{
									"color" : [ 0.059509769082069, 0.501929938793182, 0.998454749584198, 1.0 ],
									"fontname" : "Lato",
									"fontsize" : 12.0,
									"id" : "obj-107",
									"maxclass" : "newobj",
									"numinlets" : 2,
									"numoutlets" : 1,
									"outlettype" : [ "" ],
									"patching_rect" : [ 607.875, 352.0, 32.5, 23.0 ],
									"text" : "+"
								}

							}
, 							{
								"box" : 								{
									"color" : [ 0.059509769082069, 0.501929938793182, 0.998454749584198, 1.0 ],
									"fontname" : "Lato",
									"fontsize" : 12.0,
									"id" : "obj-108",
									"maxclass" : "newobj",
									"numinlets" : 1,
									"numoutlets" : 2,
									"outlettype" : [ "", "" ],
									"patching_rect" : [ 607.875, 262.0, 38.0, 23.0 ],
									"text" : "cycle"
								}

							}
, 							{
								"box" : 								{
									"color" : [ 0.059509769082069, 0.501929938793182, 0.998454749584198, 1.0 ],
									"fontname" : "Lato",
									"fontsize" : 12.0,
									"id" : "obj-109",
									"maxclass" : "newobj",
									"numinlets" : 2,
									"numoutlets" : 1,
									"outlettype" : [ "" ],
									"patching_rect" : [ 559.875, 304.0, 32.5, 23.0 ],
									"text" : "*"
								}

							}
, 							{
								"box" : 								{
									"color" : [ 0.059509769082069, 0.501929938793182, 0.998454749584198, 1.0 ],
									"fontname" : "Lato",
									"fontsize" : 12.0,
									"id" : "obj-110",
									"maxclass" : "newobj",
									"numinlets" : 2,
									"numoutlets" : 1,
									"outlettype" : [ "" ],
									"patching_rect" : [ 559.875, 352.0, 32.5, 23.0 ],
									"text" : "+"
								}

							}
, 							{
								"box" : 								{
									"color" : [ 0.059509769082069, 0.501929938793182, 0.998454749584198, 1.0 ],
									"fontname" : "Lato",
									"fontsize" : 12.0,
									"id" : "obj-111",
									"maxclass" : "newobj",
									"numinlets" : 1,
									"numoutlets" : 2,
									"outlettype" : [ "", "" ],
									"patching_rect" : [ 559.875, 262.0, 38.0, 23.0 ],
									"text" : "cycle"
								}

							}
, 							{
								"box" : 								{
									"color" : [ 0.065417610108852, 0.501814603805542, 0.251001805067062, 1.0 ],
									"id" : "obj-95",
									"maxclass" : "newobj",
									"numinlets" : 0,
									"numoutlets" : 1,
									"outlettype" : [ "" ],
									"patching_rect" : [ 586.5, 14.0, 215.0, 22.0 ],
									"text" : "param knob3_depth @min 0. @max 1."
								}

							}
, 							{
								"box" : 								{
									"id" : "obj-92",
									"maxclass" : "newobj",
									"numinlets" : 2,
									"numoutlets" : 1,
									"outlettype" : [ "" ],
									"patching_rect" : [ 283.75, 576.0, 29.5, 22.0 ],
									"text" : "*"
								}

							}
, 							{
								"box" : 								{
									"id" : "obj-91",
									"maxclass" : "newobj",
									"numinlets" : 2,
									"numoutlets" : 1,
									"outlettype" : [ "" ],
									"patching_rect" : [ 235.75, 576.0, 29.5, 22.0 ],
									"text" : "*"
								}

							}
, 							{
								"box" : 								{
									"color" : [ 0.059509769082069, 0.501929938793182, 0.998454749584198, 1.0 ],
									"fontname" : "Lato",
									"fontsize" : 12.0,
									"id" : "obj-82",
									"maxclass" : "newobj",
									"numinlets" : 1,
									"numoutlets" : 1,
									"outlettype" : [ "" ],
									"patching_rect" : [ 506.0, 230.0, 40.0, 23.0 ],
									"text" : "* 0.73"
								}

							}
, 							{
								"box" : 								{
									"color" : [ 0.059509769082069, 0.501929938793182, 0.998454749584198, 1.0 ],
									"fontname" : "Lato",
									"fontsize" : 12.0,
									"id" : "obj-84",
									"maxclass" : "newobj",
									"numinlets" : 2,
									"numoutlets" : 1,
									"outlettype" : [ "" ],
									"patching_rect" : [ 506.0, 304.0, 32.5, 23.0 ],
									"text" : "*"
								}

							}
, 							{
								"box" : 								{
									"color" : [ 0.059509769082069, 0.501929938793182, 0.998454749584198, 1.0 ],
									"fontname" : "Lato",
									"fontsize" : 12.0,
									"id" : "obj-85",
									"maxclass" : "newobj",
									"numinlets" : 2,
									"numoutlets" : 1,
									"outlettype" : [ "" ],
									"patching_rect" : [ 506.0, 352.0, 32.5, 23.0 ],
									"text" : "+"
								}

							}
, 							{
								"box" : 								{
									"color" : [ 0.059509769082069, 0.501929938793182, 0.998454749584198, 1.0 ],
									"fontname" : "Lato",
									"fontsize" : 12.0,
									"id" : "obj-86",
									"maxclass" : "newobj",
									"numinlets" : 1,
									"numoutlets" : 2,
									"outlettype" : [ "", "" ],
									"patching_rect" : [ 506.0, 262.0, 38.0, 23.0 ],
									"text" : "cycle"
								}

							}
, 							{
								"box" : 								{
									"color" : [ 0.059509769082069, 0.501929938793182, 0.998454749584198, 1.0 ],
									"fontname" : "Lato",
									"fontsize" : 12.0,
									"id" : "obj-87",
									"maxclass" : "newobj",
									"numinlets" : 2,
									"numoutlets" : 1,
									"outlettype" : [ "" ],
									"patching_rect" : [ 458.0, 304.0, 32.5, 23.0 ],
									"text" : "*"
								}

							}
, 							{
								"box" : 								{
									"color" : [ 0.059509769082069, 0.501929938793182, 0.998454749584198, 1.0 ],
									"fontname" : "Lato",
									"fontsize" : 12.0,
									"id" : "obj-88",
									"maxclass" : "newobj",
									"numinlets" : 2,
									"numoutlets" : 1,
									"outlettype" : [ "" ],
									"patching_rect" : [ 458.0, 352.0, 32.5, 23.0 ],
									"text" : "+"
								}

							}
, 							{
								"box" : 								{
									"color" : [ 0.059509769082069, 0.501929938793182, 0.998454749584198, 1.0 ],
									"fontname" : "Lato",
									"fontsize" : 12.0,
									"id" : "obj-89",
									"maxclass" : "newobj",
									"numinlets" : 1,
									"numoutlets" : 2,
									"outlettype" : [ "", "" ],
									"patching_rect" : [ 458.0, 262.0, 38.0, 23.0 ],
									"text" : "cycle"
								}

							}
, 							{
								"box" : 								{
									"id" : "obj-81",
									"maxclass" : "newobj",
									"numinlets" : 2,
									"numoutlets" : 1,
									"outlettype" : [ "" ],
									"patching_rect" : [ 152.25, 621.074066400527954, 29.5, 22.0 ],
									"text" : "+"
								}

							}
, 							{
								"box" : 								{
									"color" : [ 0.059509769082069, 0.501929938793182, 0.998454749584198, 1.0 ],
									"fontname" : "Lato",
									"fontsize" : 12.0,
									"id" : "obj-44",
									"maxclass" : "newobj",
									"numinlets" : 1,
									"numoutlets" : 1,
									"outlettype" : [ "" ],
									"patching_rect" : [ 411.0, 230.0, 40.0, 23.0 ],
									"text" : "* 1.51"
								}

							}
, 							{
								"box" : 								{
									"color" : [ 0.059509769082069, 0.501929938793182, 0.998454749584198, 1.0 ],
									"fontname" : "Lato",
									"fontsize" : 12.0,
									"id" : "obj-60",
									"maxclass" : "newobj",
									"numinlets" : 2,
									"numoutlets" : 1,
									"outlettype" : [ "" ],
									"patching_rect" : [ 411.0, 304.0, 32.5, 23.0 ],
									"text" : "*"
								}

							}
, 							{
								"box" : 								{
									"color" : [ 0.059509769082069, 0.501929938793182, 0.998454749584198, 1.0 ],
									"fontname" : "Lato",
									"fontsize" : 12.0,
									"id" : "obj-61",
									"maxclass" : "newobj",
									"numinlets" : 2,
									"numoutlets" : 1,
									"outlettype" : [ "" ],
									"patching_rect" : [ 411.0, 352.0, 32.5, 23.0 ],
									"text" : "+"
								}

							}
, 							{
								"box" : 								{
									"color" : [ 0.059509769082069, 0.501929938793182, 0.998454749584198, 1.0 ],
									"fontname" : "Lato",
									"fontsize" : 12.0,
									"id" : "obj-62",
									"maxclass" : "newobj",
									"numinlets" : 1,
									"numoutlets" : 2,
									"outlettype" : [ "", "" ],
									"patching_rect" : [ 411.0, 262.0, 38.0, 23.0 ],
									"text" : "cycle"
								}

							}
, 							{
								"box" : 								{
									"color" : [ 0.059509769082069, 0.501929938793182, 0.998454749584198, 1.0 ],
									"fontname" : "Lato",
									"fontsize" : 12.0,
									"id" : "obj-63",
									"maxclass" : "newobj",
									"numinlets" : 2,
									"numoutlets" : 1,
									"outlettype" : [ "" ],
									"patching_rect" : [ 363.0, 304.0, 32.5, 23.0 ],
									"text" : "*"
								}

							}
, 							{
								"box" : 								{
									"color" : [ 0.059509769082069, 0.501929938793182, 0.998454749584198, 1.0 ],
									"fontname" : "Lato",
									"fontsize" : 12.0,
									"id" : "obj-64",
									"maxclass" : "newobj",
									"numinlets" : 2,
									"numoutlets" : 1,
									"outlettype" : [ "" ],
									"patching_rect" : [ 363.0, 352.0, 32.5, 23.0 ],
									"text" : "+"
								}

							}
, 							{
								"box" : 								{
									"color" : [ 0.059509769082069, 0.501929938793182, 0.998454749584198, 1.0 ],
									"fontname" : "Lato",
									"fontsize" : 12.0,
									"id" : "obj-65",
									"maxclass" : "newobj",
									"numinlets" : 1,
									"numoutlets" : 2,
									"outlettype" : [ "", "" ],
									"patching_rect" : [ 363.0, 262.0, 38.0, 23.0 ],
									"text" : "cycle"
								}

							}
, 							{
								"box" : 								{
									"color" : [ 0.059509769082069, 0.501929938793182, 0.998454749584198, 1.0 ],
									"fontname" : "Lato",
									"fontsize" : 12.0,
									"id" : "obj-67",
									"maxclass" : "newobj",
									"numinlets" : 9,
									"numoutlets" : 8,
									"outlettype" : [ "", "", "", "", "", "", "", "" ],
									"patching_rect" : [ 333.0, 402.0, 390.875, 23.0 ],
									"text" : "delay 20000 8"
								}

							}
, 							{
								"box" : 								{
									"id" : "obj-80",
									"maxclass" : "comment",
									"numinlets" : 1,
									"numoutlets" : 0,
									"patching_rect" : [ 112.0, 746.0, 111.0, 20.0 ],
									"text" : "mono in, stereo out"
								}

							}
, 							{
								"box" : 								{
									"fontsize" : 12.0,
									"id" : "obj-78",
									"maxclass" : "newobj",
									"numinlets" : 1,
									"numoutlets" : 0,
									"patching_rect" : [ 65.0, 746.0, 35.0, 22.0 ],
									"text" : "out 2"
								}

							}
, 							{
								"box" : 								{
									"id" : "obj-77",
									"maxclass" : "newobj",
									"numinlets" : 2,
									"numoutlets" : 2,
									"outlettype" : [ "", "" ],
									"patching_rect" : [ 34.0, 349.0, 119.0, 22.0 ],
									"text" : "gate 2"
								}

							}
, 							{
								"box" : 								{
									"id" : "obj-69",
									"maxclass" : "newobj",
									"numinlets" : 1,
									"numoutlets" : 0,
									"patching_rect" : [ 521.75, 689.0, 61.0, 22.0 ],
									"text" : "out 6 led4"
								}

							}
, 							{
								"box" : 								{
									"id" : "obj-70",
									"maxclass" : "newobj",
									"numinlets" : 1,
									"numoutlets" : 0,
									"patching_rect" : [ 449.75, 689.0, 61.0, 22.0 ],
									"text" : "out 5 led3"
								}

							}
, 							{
								"box" : 								{
									"id" : "obj-71",
									"maxclass" : "newobj",
									"numinlets" : 1,
									"numoutlets" : 0,
									"patching_rect" : [ 380.75, 689.0, 61.0, 22.0 ],
									"text" : "out 4 led2"
								}

							}
, 							{
								"box" : 								{
									"id" : "obj-72",
									"maxclass" : "newobj",
									"numinlets" : 0,
									"numoutlets" : 1,
									"outlettype" : [ "" ],
									"patching_rect" : [ 380.75, 649.0, 19.0, 22.0 ],
									"text" : "0"
								}

							}
, 							{
								"box" : 								{
									"id" : "obj-73",
									"maxclass" : "newobj",
									"numinlets" : 1,
									"numoutlets" : 0,
									"patching_rect" : [ 65.0, 305.0, 61.0, 22.0 ],
									"text" : "out 3 led1"
								}

							}
, 							{
								"box" : 								{
									"id" : "obj-74",
									"maxclass" : "newobj",
									"numinlets" : 1,
									"numoutlets" : 1,
									"outlettype" : [ "" ],
									"patching_rect" : [ 34.0, 270.0, 56.0, 22.0 ],
									"text" : "swtoggle"
								}

							}
, 							{
								"box" : 								{
									"id" : "obj-75",
									"maxclass" : "newobj",
									"numinlets" : 1,
									"numoutlets" : 1,
									"outlettype" : [ "" ],
									"patching_rect" : [ 34.0, 305.0, 26.0, 22.0 ],
									"text" : "+ 1"
								}

							}
, 							{
								"box" : 								{
									"id" : "obj-76",
									"maxclass" : "newobj",
									"numinlets" : 0,
									"numoutlets" : 1,
									"outlettype" : [ "" ],
									"patching_rect" : [ 34.0, 231.0, 67.0, 22.0 ],
									"text" : "param sw1"
								}

							}
, 							{
								"box" : 								{
									"id" : "obj-42",
									"maxclass" : "newobj",
									"numinlets" : 2,
									"numoutlets" : 1,
									"outlettype" : [ "" ],
									"patching_rect" : [ 97.25, 621.074066400527954, 29.5, 22.0 ],
									"text" : "+"
								}

							}
, 							{
								"box" : 								{
									"color" : [ 0.065417610108852, 0.501814603805542, 0.251001805067062, 1.0 ],
									"id" : "obj-8",
									"maxclass" : "newobj",
									"numinlets" : 1,
									"numoutlets" : 1,
									"outlettype" : [ "" ],
									"patching_rect" : [ 586.5, 155.0, 108.0, 22.0 ],
									"text" : "oopsy.ctrl.smooth3"
								}

							}
, 							{
								"box" : 								{
									"color" : [ 0.50195974111557, 0.0, 0.008130922913551, 1.0 ],
									"id" : "obj-5",
									"maxclass" : "newobj",
									"numinlets" : 0,
									"numoutlets" : 1,
									"outlettype" : [ "" ],
									"patching_rect" : [ 363.0, 14.0, 206.0, 22.0 ],
									"text" : "param knob4_rate @min 0. @max 1."
								}

							}
, 							{
								"box" : 								{
									"fontsize" : 12.0,
									"id" : "obj-1",
									"maxclass" : "newobj",
									"numinlets" : 0,
									"numoutlets" : 1,
									"outlettype" : [ "" ],
									"patching_rect" : [ 134.0, 305.0, 28.0, 22.0 ],
									"text" : "in 1"
								}

							}
, 							{
								"box" : 								{
									"fontsize" : 12.0,
									"id" : "obj-4",
									"maxclass" : "newobj",
									"numinlets" : 1,
									"numoutlets" : 0,
									"patching_rect" : [ 20.0, 746.0, 35.0, 22.0 ],
									"text" : "out 1"
								}

							}
 ],
						"lines" : [ 							{
								"patchline" : 								{
									"color" : [ 0.19999997317791, 0.199999943375587, 0.19999997317791, 1.0 ],
									"destination" : [ "obj-77", 1 ],
									"source" : [ "obj-1", 0 ]
								}

							}
, 							{
								"patchline" : 								{
									"color" : [ 0.059509769082069, 0.501929938793182, 0.998454749584198, 1.0 ],
									"destination" : [ "obj-98", 0 ],
									"source" : [ "obj-100", 0 ]
								}

							}
, 							{
								"patchline" : 								{
									"color" : [ 0.059509769082069, 0.501929938793182, 0.998454749584198, 1.0 ],
									"destination" : [ "obj-102", 0 ],
									"source" : [ "obj-101", 0 ]
								}

							}
, 							{
								"patchline" : 								{
									"color" : [ 0.059509769082069, 0.501929938793182, 0.998454749584198, 1.0 ],
									"destination" : [ "obj-67", 7 ],
									"source" : [ "obj-102", 0 ]
								}

							}
, 							{
								"patchline" : 								{
									"color" : [ 0.059509769082069, 0.501929938793182, 0.998454749584198, 1.0 ],
									"destination" : [ "obj-101", 0 ],
									"source" : [ "obj-103", 0 ]
								}

							}
, 							{
								"patchline" : 								{
									"color" : [ 0.059509769082069, 0.501929938793182, 0.998454749584198, 1.0 ],
									"destination" : [ "obj-108", 0 ],
									"source" : [ "obj-104", 0 ]
								}

							}
, 							{
								"patchline" : 								{
									"color" : [ 0.059509769082069, 0.501929938793182, 0.998454749584198, 1.0 ],
									"destination" : [ "obj-107", 0 ],
									"source" : [ "obj-106", 0 ]
								}

							}
, 							{
								"patchline" : 								{
									"color" : [ 0.059509769082069, 0.501929938793182, 0.998454749584198, 1.0 ],
									"destination" : [ "obj-67", 6 ],
									"source" : [ "obj-107", 0 ]
								}

							}
, 							{
								"patchline" : 								{
									"color" : [ 0.059509769082069, 0.501929938793182, 0.998454749584198, 1.0 ],
									"destination" : [ "obj-106", 0 ],
									"source" : [ "obj-108", 0 ]
								}

							}
, 							{
								"patchline" : 								{
									"color" : [ 0.059509769082069, 0.501929938793182, 0.998454749584198, 1.0 ],
									"destination" : [ "obj-110", 0 ],
									"source" : [ "obj-109", 0 ]
								}

							}
, 							{
								"patchline" : 								{
									"color" : [ 0.059509769082069, 0.501929938793182, 0.998454749584198, 1.0 ],
									"destination" : [ "obj-67", 5 ],
									"source" : [ "obj-110", 0 ]
								}

							}
, 							{
								"patchline" : 								{
									"color" : [ 0.059509769082069, 0.501929938793182, 0.998454749584198, 1.0 ],
									"destination" : [ "obj-109", 0 ],
									"source" : [ "obj-111", 0 ]
								}

							}
, 							{
								"patchline" : 								{
									"color" : [ 0.50195974111557, 0.0, 0.008130922913551, 1.0 ],
									"destination" : [ "obj-66", 0 ],
									"source" : [ "obj-112", 0 ]
								}

							}
, 							{
								"patchline" : 								{
									"color" : [ 0.059509769082069, 0.501929938793182, 0.998454749584198, 1.0 ],
									"destination" : [ "obj-103", 0 ],
									"source" : [ "obj-114", 0 ]
								}

							}
, 							{
								"patchline" : 								{
									"color" : [ 0.059509769082069, 0.501929938793182, 0.998454749584198, 1.0 ],
									"destination" : [ "obj-111", 0 ],
									"source" : [ "obj-115", 0 ]
								}

							}
, 							{
								"patchline" : 								{
									"color" : [ 0.059509769082069, 0.501929938793182, 0.998454749584198, 1.0 ],
									"destination" : [ "obj-89", 0 ],
									"source" : [ "obj-116", 0 ]
								}

							}
, 							{
								"patchline" : 								{
									"color" : [ 0.059509769082069, 0.501929938793182, 0.998454749584198, 1.0 ],
									"destination" : [ "obj-65", 0 ],
									"source" : [ "obj-117", 0 ]
								}

							}
, 							{
								"patchline" : 								{
									"color" : [ 0.50195974111557, 0.0, 0.008130922913551, 1.0 ],
									"destination" : [ "obj-104", 0 ],
									"order" : 2,
									"source" : [ "obj-118", 0 ]
								}

							}
, 							{
								"patchline" : 								{
									"color" : [ 0.50195974111557, 0.0, 0.008130922913551, 1.0 ],
									"destination" : [ "obj-114", 0 ],
									"order" : 1,
									"source" : [ "obj-118", 0 ]
								}

							}
, 							{
								"patchline" : 								{
									"color" : [ 0.50195974111557, 0.0, 0.008130922913551, 1.0 ],
									"destination" : [ "obj-115", 0 ],
									"order" : 3,
									"source" : [ "obj-118", 0 ]
								}

							}
, 							{
								"patchline" : 								{
									"color" : [ 0.50195974111557, 0.0, 0.008130922913551, 1.0 ],
									"destination" : [ "obj-116", 0 ],
									"order" : 5,
									"source" : [ "obj-118", 0 ]
								}

							}
, 							{
								"patchline" : 								{
									"color" : [ 0.50195974111557, 0.0, 0.008130922913551, 1.0 ],
									"destination" : [ "obj-117", 0 ],
									"order" : 7,
									"source" : [ "obj-118", 0 ]
								}

							}
, 							{
								"patchline" : 								{
									"color" : [ 0.50195974111557, 0.0, 0.008130922913551, 1.0 ],
									"destination" : [ "obj-44", 0 ],
									"order" : 6,
									"source" : [ "obj-118", 0 ]
								}

							}
, 							{
								"patchline" : 								{
									"color" : [ 0.50195974111557, 0.0, 0.008130922913551, 1.0 ],
									"destination" : [ "obj-82", 0 ],
									"order" : 4,
									"source" : [ "obj-118", 0 ]
								}

							}
, 							{
								"patchline" : 								{
									"color" : [ 0.50195974111557, 0.0, 0.008130922913551, 1.0 ],
									"destination" : [ "obj-96", 0 ],
									"order" : 0,
									"source" : [ "obj-118", 0 ]
								}

							}
, 							{
								"patchline" : 								{
									"destination" : [ "obj-3", 0 ],
									"order" : 1,
									"source" : [ "obj-12", 0 ]
								}

							}
, 							{
								"patchline" : 								{
									"destination" : [ "obj-6", 0 ],
									"order" : 0,
									"source" : [ "obj-12", 0 ]
								}

							}
, 							{
								"patchline" : 								{
									"destination" : [ "obj-4", 0 ],
									"source" : [ "obj-14", 0 ]
								}

							}
, 							{
								"patchline" : 								{
									"destination" : [ "obj-78", 0 ],
									"source" : [ "obj-18", 0 ]
								}

							}
, 							{
								"patchline" : 								{
									"color" : [ 0.065417610108852, 0.501814603805542, 0.251001805067062, 1.0 ],
									"destination" : [ "obj-26", 0 ],
									"source" : [ "obj-2", 0 ]
								}

							}
, 							{
								"patchline" : 								{
									"destination" : [ "obj-24", 0 ],
									"order" : 0,
									"source" : [ "obj-23", 0 ]
								}

							}
, 							{
								"patchline" : 								{
									"destination" : [ "obj-9", 0 ],
									"order" : 1,
									"source" : [ "obj-23", 0 ]
								}

							}
, 							{
								"patchline" : 								{
									"destination" : [ "obj-42", 0 ],
									"order" : 1,
									"source" : [ "obj-24", 0 ]
								}

							}
, 							{
								"patchline" : 								{
									"destination" : [ "obj-81", 0 ],
									"order" : 0,
									"source" : [ "obj-24", 0 ]
								}

							}
, 							{
								"patchline" : 								{
									"destination" : [ "obj-24", 1 ],
									"source" : [ "obj-25", 0 ]
								}

							}
, 							{
								"patchline" : 								{
									"color" : [ 0.065417610108852, 0.501814603805542, 0.251001805067062, 1.0 ],
									"destination" : [ "obj-8", 0 ],
									"source" : [ "obj-26", 0 ]
								}

							}
, 							{
								"patchline" : 								{
									"color" : [ 0.250980466604233, 0.0, 0.501960754394531, 1.0 ],
									"destination" : [ "obj-29", 0 ],
									"source" : [ "obj-28", 0 ]
								}

							}
, 							{
								"patchline" : 								{
									"color" : [ 0.250980466604233, 0.0, 0.501960754394531, 1.0 ],
									"destination" : [ "obj-33", 0 ],
									"order" : 2,
									"source" : [ "obj-29", 0 ]
								}

							}
, 							{
								"patchline" : 								{
									"color" : [ 0.250980466604233, 0.0, 0.501960754394531, 1.0 ],
									"destination" : [ "obj-46", 0 ],
									"midpoints" : [ 778.5, 391.0, 735.0, 391.0, 735.0, 478.0, 259.5, 478.0 ],
									"order" : 3,
									"source" : [ "obj-29", 0 ]
								}

							}
, 							{
								"patchline" : 								{
									"color" : [ 0.250980466604233, 0.0, 0.501960754394531, 1.0 ],
									"destination" : [ "obj-48", 0 ],
									"order" : 1,
									"source" : [ "obj-29", 0 ]
								}

							}
, 							{
								"patchline" : 								{
									"color" : [ 0.250980466604233, 0.0, 0.501960754394531, 1.0 ],
									"destination" : [ "obj-51", 0 ],
									"order" : 0,
									"source" : [ "obj-29", 0 ]
								}

							}
, 							{
								"patchline" : 								{
									"color" : [ 0.19999997317791, 0.199999943375587, 0.19999997317791, 1.0 ],
									"destination" : [ "obj-14", 1 ],
									"source" : [ "obj-3", 0 ]
								}

							}
, 							{
								"patchline" : 								{
									"color" : [ 0.250980466604233, 0.0, 0.501960754394531, 1.0 ],
									"destination" : [ "obj-41", 1 ],
									"order" : 0,
									"source" : [ "obj-31", 0 ]
								}

							}
, 							{
								"patchline" : 								{
									"color" : [ 0.250980466604233, 0.0, 0.501960754394531, 1.0 ],
									"destination" : [ "obj-45", 1 ],
									"order" : 1,
									"source" : [ "obj-31", 0 ]
								}

							}
, 							{
								"patchline" : 								{
									"color" : [ 0.250980466604233, 0.0, 0.501960754394531, 1.0 ],
									"destination" : [ "obj-39", 1 ],
									"order" : 0,
									"source" : [ "obj-32", 0 ]
								}

							}
, 							{
								"patchline" : 								{
									"color" : [ 0.250980466604233, 0.0, 0.501960754394531, 1.0 ],
									"destination" : [ "obj-40", 1 ],
									"order" : 1,
									"source" : [ "obj-32", 0 ]
								}

							}
, 							{
								"patchline" : 								{
									"color" : [ 0.250980466604233, 0.0, 0.501960754394531, 1.0 ],
									"destination" : [ "obj-32", 0 ],
									"source" : [ "obj-33", 0 ]
								}

							}
, 							{
								"patchline" : 								{
									"color" : [ 0.298039227724075, 0.298039257526398, 0.298039197921753, 1.0 ],
									"destination" : [ "obj-91", 0 ],
									"source" : [ "obj-34", 0 ]
								}

							}
, 							{
								"patchline" : 								{
									"color" : [ 0.250980466604233, 0.0, 0.501960754394531, 1.0 ],
									"destination" : [ "obj-34", 1 ],
									"order" : 1,
									"source" : [ "obj-35", 0 ]
								}

							}
, 							{
								"patchline" : 								{
									"color" : [ 0.250980466604233, 0.0, 0.501960754394531, 1.0 ],
									"destination" : [ "obj-36", 1 ],
									"order" : 0,
									"source" : [ "obj-35", 0 ]
								}

							}
, 							{
								"patchline" : 								{
									"color" : [ 0.298039227724075, 0.298039257526398, 0.298039197921753, 1.0 ],
									"destination" : [ "obj-92", 0 ],
									"source" : [ "obj-36", 0 ]
								}

							}
, 							{
								"patchline" : 								{
									"color" : [ 0.298039227724075, 0.298039257526398, 0.298039197921753, 1.0 ],
									"destination" : [ "obj-91", 0 ],
									"source" : [ "obj-37", 0 ]
								}

							}
, 							{
								"patchline" : 								{
									"color" : [ 0.298039227724075, 0.298039257526398, 0.298039197921753, 1.0 ],
									"destination" : [ "obj-92", 0 ],
									"source" : [ "obj-38", 0 ]
								}

							}
, 							{
								"patchline" : 								{
									"color" : [ 0.298039227724075, 0.298039257526398, 0.298039197921753, 1.0 ],
									"destination" : [ "obj-91", 0 ],
									"source" : [ "obj-39", 0 ]
								}

							}
, 							{
								"patchline" : 								{
									"color" : [ 0.298039227724075, 0.298039257526398, 0.298039197921753, 1.0 ],
									"destination" : [ "obj-92", 0 ],
									"source" : [ "obj-40", 0 ]
								}

							}
, 							{
								"patchline" : 								{
									"color" : [ 0.298039227724075, 0.298039257526398, 0.298039197921753, 1.0 ],
									"destination" : [ "obj-92", 0 ],
									"source" : [ "obj-41", 0 ]
								}

							}
, 							{
								"patchline" : 								{
									"color" : [ 0.19999997317791, 0.199999943375587, 0.19999997317791, 1.0 ],
									"destination" : [ "obj-3", 1 ],
									"source" : [ "obj-42", 0 ]
								}

							}
, 							{
								"patchline" : 								{
									"color" : [ 0.059509769082069, 0.501929938793182, 0.998454749584198, 1.0 ],
									"destination" : [ "obj-62", 0 ],
									"source" : [ "obj-44", 0 ]
								}

							}
, 							{
								"patchline" : 								{
									"color" : [ 0.298039227724075, 0.298039257526398, 0.298039197921753, 1.0 ],
									"destination" : [ "obj-91", 0 ],
									"source" : [ "obj-45", 0 ]
								}

							}
, 							{
								"patchline" : 								{
									"color" : [ 0.250980466604233, 0.0, 0.501960754394531, 1.0 ],
									"destination" : [ "obj-91", 1 ],
									"order" : 1,
									"source" : [ "obj-46", 0 ]
								}

							}
, 							{
								"patchline" : 								{
									"color" : [ 0.250980466604233, 0.0, 0.501960754394531, 1.0 ],
									"destination" : [ "obj-92", 1 ],
									"order" : 0,
									"source" : [ "obj-46", 0 ]
								}

							}
, 							{
								"patchline" : 								{
									"color" : [ 0.250980466604233, 0.0, 0.501960754394531, 1.0 ],
									"destination" : [ "obj-35", 0 ],
									"source" : [ "obj-48", 0 ]
								}

							}
, 							{
								"patchline" : 								{
									"color" : [ 0.250980466604233, 0.0, 0.501960754394531, 1.0 ],
									"destination" : [ "obj-37", 1 ],
									"order" : 0,
									"source" : [ "obj-49", 0 ]
								}

							}
, 							{
								"patchline" : 								{
									"color" : [ 0.250980466604233, 0.0, 0.501960754394531, 1.0 ],
									"destination" : [ "obj-38", 1 ],
									"order" : 1,
									"source" : [ "obj-49", 0 ]
								}

							}
, 							{
								"patchline" : 								{
									"color" : [ 0.50195974111557, 0.0, 0.008130922913551, 1.0 ],
									"destination" : [ "obj-112", 0 ],
									"source" : [ "obj-5", 0 ]
								}

							}
, 							{
								"patchline" : 								{
									"color" : [ 0.250980466604233, 0.0, 0.501960754394531, 1.0 ],
									"destination" : [ "obj-49", 0 ],
									"source" : [ "obj-51", 0 ]
								}

							}
, 							{
								"patchline" : 								{
									"color" : [ 0.028541615232825, 0.250918865203857, 0.50196373462677, 1.0 ],
									"destination" : [ "obj-85", 1 ],
									"midpoints" : [ 806.5, 285.0, 753.0, 285.0, 753.0, 339.0, 529.0, 339.0 ],
									"order" : 0,
									"source" : [ "obj-52", 0 ]
								}

							}
, 							{
								"patchline" : 								{
									"color" : [ 0.028541615232825, 0.250918865203857, 0.50196373462677, 1.0 ],
									"destination" : [ "obj-88", 1 ],
									"midpoints" : [ 806.5, 285.0, 753.0, 285.0, 753.0, 339.0, 481.0, 339.0 ],
									"order" : 1,
									"source" : [ "obj-52", 0 ]
								}

							}
, 							{
								"patchline" : 								{
									"color" : [ 0.028541615232825, 0.250918865203857, 0.50196373462677, 1.0 ],
									"destination" : [ "obj-107", 1 ],
									"midpoints" : [ 833.5, 285.0, 753.0, 285.0, 753.0, 339.0, 630.875, 339.0 ],
									"order" : 0,
									"source" : [ "obj-53", 0 ]
								}

							}
, 							{
								"patchline" : 								{
									"color" : [ 0.028541615232825, 0.250918865203857, 0.50196373462677, 1.0 ],
									"destination" : [ "obj-110", 1 ],
									"midpoints" : [ 833.5, 285.0, 753.0, 285.0, 753.0, 339.0, 582.875, 339.0 ],
									"order" : 1,
									"source" : [ "obj-53", 0 ]
								}

							}
, 							{
								"patchline" : 								{
									"color" : [ 0.028541615232825, 0.250918865203857, 0.50196373462677, 1.0 ],
									"destination" : [ "obj-102", 1 ],
									"midpoints" : [ 863.5, 285.0, 753.0, 285.0, 753.0, 339.0, 679.875, 339.0 ],
									"order" : 1,
									"source" : [ "obj-54", 0 ]
								}

							}
, 							{
								"patchline" : 								{
									"color" : [ 0.000000062398612, 0.0, 0.501960754394531, 1.0 ],
									"destination" : [ "obj-99", 1 ],
									"midpoints" : [ 863.5, 285.0, 753.0, 285.0, 753.0, 339.0, 727.875, 339.0 ],
									"order" : 0,
									"source" : [ "obj-54", 0 ]
								}

							}
, 							{
								"patchline" : 								{
									"color" : [ 0.028541615232825, 0.250918865203857, 0.50196373462677, 1.0 ],
									"destination" : [ "obj-57", 0 ],
									"source" : [ "obj-55", 0 ]
								}

							}
, 							{
								"patchline" : 								{
									"color" : [ 0.028541615232825, 0.250918865203857, 0.50196373462677, 1.0 ],
									"destination" : [ "obj-52", 0 ],
									"order" : 2,
									"source" : [ "obj-57", 0 ]
								}

							}
, 							{
								"patchline" : 								{
									"color" : [ 0.028541615232825, 0.250918865203857, 0.50196373462677, 1.0 ],
									"destination" : [ "obj-53", 0 ],
									"order" : 1,
									"source" : [ "obj-57", 0 ]
								}

							}
, 							{
								"patchline" : 								{
									"color" : [ 0.028541615232825, 0.250918865203857, 0.50196373462677, 1.0 ],
									"destination" : [ "obj-54", 0 ],
									"order" : 0,
									"source" : [ "obj-57", 0 ]
								}

							}
, 							{
								"patchline" : 								{
									"color" : [ 0.028541615232825, 0.250918865203857, 0.50196373462677, 1.0 ],
									"destination" : [ "obj-58", 0 ],
									"order" : 3,
									"source" : [ "obj-57", 0 ]
								}

							}
, 							{
								"patchline" : 								{
									"color" : [ 0.028541615232825, 0.250918865203857, 0.50196373462677, 1.0 ],
									"destination" : [ "obj-61", 1 ],
									"midpoints" : [ 778.5, 285.0, 753.0, 285.0, 753.0, 339.0, 434.0, 339.0 ],
									"order" : 0,
									"source" : [ "obj-58", 0 ]
								}

							}
, 							{
								"patchline" : 								{
									"color" : [ 0.028541615232825, 0.250918865203857, 0.50196373462677, 1.0 ],
									"destination" : [ "obj-64", 1 ],
									"midpoints" : [ 778.5, 285.0, 753.0, 285.0, 753.0, 339.0, 386.0, 339.0 ],
									"order" : 1,
									"source" : [ "obj-58", 0 ]
								}

							}
, 							{
								"patchline" : 								{
									"color" : [ 0.50195974111557, 0.0, 0.008130922913551, 1.0 ],
									"destination" : [ "obj-118", 0 ],
									"source" : [ "obj-59", 0 ]
								}

							}
, 							{
								"patchline" : 								{
									"color" : [ 0.19999997317791, 0.199999943375587, 0.19999997317791, 1.0 ],
									"destination" : [ "obj-18", 1 ],
									"source" : [ "obj-6", 0 ]
								}

							}
, 							{
								"patchline" : 								{
									"color" : [ 0.059509769082069, 0.501929938793182, 0.998454749584198, 1.0 ],
									"destination" : [ "obj-61", 0 ],
									"source" : [ "obj-60", 0 ]
								}

							}
, 							{
								"patchline" : 								{
									"color" : [ 0.059509769082069, 0.501929938793182, 0.998454749584198, 1.0 ],
									"destination" : [ "obj-67", 2 ],
									"source" : [ "obj-61", 0 ]
								}

							}
, 							{
								"patchline" : 								{
									"color" : [ 0.059509769082069, 0.501929938793182, 0.998454749584198, 1.0 ],
									"destination" : [ "obj-60", 0 ],
									"source" : [ "obj-62", 0 ]
								}

							}
, 							{
								"patchline" : 								{
									"color" : [ 0.059509769082069, 0.501929938793182, 0.998454749584198, 1.0 ],
									"destination" : [ "obj-64", 0 ],
									"source" : [ "obj-63", 0 ]
								}

							}
, 							{
								"patchline" : 								{
									"color" : [ 0.059509769082069, 0.501929938793182, 0.998454749584198, 1.0 ],
									"destination" : [ "obj-67", 1 ],
									"source" : [ "obj-64", 0 ]
								}

							}
, 							{
								"patchline" : 								{
									"color" : [ 0.059509769082069, 0.501929938793182, 0.998454749584198, 1.0 ],
									"destination" : [ "obj-63", 0 ],
									"source" : [ "obj-65", 0 ]
								}

							}
, 							{
								"patchline" : 								{
									"color" : [ 0.50195974111557, 0.0, 0.008130922913551, 1.0 ],
									"destination" : [ "obj-59", 0 ],
									"source" : [ "obj-66", 0 ]
								}

							}
, 							{
								"patchline" : 								{
									"color" : [ 0.298039227724075, 0.298039257526398, 0.298039197921753, 1.0 ],
									"destination" : [ "obj-34", 0 ],
									"source" : [ "obj-67", 4 ]
								}

							}
, 							{
								"patchline" : 								{
									"color" : [ 0.298039227724075, 0.298039257526398, 0.298039197921753, 1.0 ],
									"destination" : [ "obj-36", 0 ],
									"source" : [ "obj-67", 5 ]
								}

							}
, 							{
								"patchline" : 								{
									"color" : [ 0.298039227724075, 0.298039257526398, 0.298039197921753, 1.0 ],
									"destination" : [ "obj-37", 0 ],
									"source" : [ "obj-67", 7 ]
								}

							}
, 							{
								"patchline" : 								{
									"color" : [ 0.298039227724075, 0.298039257526398, 0.298039197921753, 1.0 ],
									"destination" : [ "obj-38", 0 ],
									"source" : [ "obj-67", 6 ]
								}

							}
, 							{
								"patchline" : 								{
									"color" : [ 0.298039227724075, 0.298039257526398, 0.298039197921753, 1.0 ],
									"destination" : [ "obj-39", 0 ],
									"source" : [ "obj-67", 3 ]
								}

							}
, 							{
								"patchline" : 								{
									"color" : [ 0.298039227724075, 0.298039257526398, 0.298039197921753, 1.0 ],
									"destination" : [ "obj-40", 0 ],
									"source" : [ "obj-67", 2 ]
								}

							}
, 							{
								"patchline" : 								{
									"color" : [ 0.298039227724075, 0.298039257526398, 0.298039197921753, 1.0 ],
									"destination" : [ "obj-41", 0 ],
									"source" : [ "obj-67", 1 ]
								}

							}
, 							{
								"patchline" : 								{
									"color" : [ 0.298039227724075, 0.298039257526398, 0.298039197921753, 1.0 ],
									"destination" : [ "obj-45", 0 ],
									"source" : [ "obj-67", 0 ]
								}

							}
, 							{
								"patchline" : 								{
									"destination" : [ "obj-69", 0 ],
									"order" : 0,
									"source" : [ "obj-72", 0 ]
								}

							}
, 							{
								"patchline" : 								{
									"destination" : [ "obj-70", 0 ],
									"order" : 1,
									"source" : [ "obj-72", 0 ]
								}

							}
, 							{
								"patchline" : 								{
									"destination" : [ "obj-71", 0 ],
									"order" : 2,
									"source" : [ "obj-72", 0 ]
								}

							}
, 							{
								"patchline" : 								{
									"destination" : [ "obj-73", 0 ],
									"order" : 0,
									"source" : [ "obj-74", 0 ]
								}

							}
, 							{
								"patchline" : 								{
									"destination" : [ "obj-75", 0 ],
									"order" : 1,
									"source" : [ "obj-74", 0 ]
								}

							}
, 							{
								"patchline" : 								{
									"destination" : [ "obj-77", 0 ],
									"source" : [ "obj-75", 0 ]
								}

							}
, 							{
								"patchline" : 								{
									"destination" : [ "obj-74", 0 ],
									"source" : [ "obj-76", 0 ]
								}

							}
, 							{
								"patchline" : 								{
									"destination" : [ "obj-14", 0 ],
									"order" : 1,
									"source" : [ "obj-77", 0 ]
								}

							}
, 							{
								"patchline" : 								{
									"destination" : [ "obj-18", 0 ],
									"order" : 0,
									"source" : [ "obj-77", 0 ]
								}

							}
, 							{
								"patchline" : 								{
									"color" : [ 0.19999997317791, 0.199999943375587, 0.19999997317791, 1.0 ],
									"destination" : [ "obj-24", 2 ],
									"midpoints" : [ 143.5, 392.0, 232.25, 392.0 ],
									"order" : 1,
									"source" : [ "obj-77", 1 ]
								}

							}
, 							{
								"patchline" : 								{
									"color" : [ 0.19999997317791, 0.199999943375587, 0.19999997317791, 1.0 ],
									"destination" : [ "obj-67", 0 ],
									"midpoints" : [ 143.5, 392.0, 342.5, 392.0 ],
									"order" : 0,
									"source" : [ "obj-77", 1 ]
								}

							}
, 							{
								"patchline" : 								{
									"color" : [ 0.065417610108852, 0.501814603805542, 0.251001805067062, 1.0 ],
									"destination" : [ "obj-101", 1 ],
									"order" : 1,
									"source" : [ "obj-8", 0 ]
								}

							}
, 							{
								"patchline" : 								{
									"color" : [ 0.065417610108852, 0.501814603805542, 0.251001805067062, 1.0 ],
									"destination" : [ "obj-106", 1 ],
									"order" : 2,
									"source" : [ "obj-8", 0 ]
								}

							}
, 							{
								"patchline" : 								{
									"color" : [ 0.065417610108852, 0.501814603805542, 0.251001805067062, 1.0 ],
									"destination" : [ "obj-109", 1 ],
									"order" : 3,
									"source" : [ "obj-8", 0 ]
								}

							}
, 							{
								"patchline" : 								{
									"color" : [ 0.065417610108852, 0.501814603805542, 0.251001805067062, 1.0 ],
									"destination" : [ "obj-60", 1 ],
									"order" : 6,
									"source" : [ "obj-8", 0 ]
								}

							}
, 							{
								"patchline" : 								{
									"color" : [ 0.065417610108852, 0.501814603805542, 0.251001805067062, 1.0 ],
									"destination" : [ "obj-63", 1 ],
									"order" : 7,
									"source" : [ "obj-8", 0 ]
								}

							}
, 							{
								"patchline" : 								{
									"color" : [ 0.065417610108852, 0.501814603805542, 0.251001805067062, 1.0 ],
									"destination" : [ "obj-84", 1 ],
									"order" : 4,
									"source" : [ "obj-8", 0 ]
								}

							}
, 							{
								"patchline" : 								{
									"color" : [ 0.065417610108852, 0.501814603805542, 0.251001805067062, 1.0 ],
									"destination" : [ "obj-87", 1 ],
									"order" : 5,
									"source" : [ "obj-8", 0 ]
								}

							}
, 							{
								"patchline" : 								{
									"color" : [ 0.065417610108852, 0.501814603805542, 0.251001805067062, 1.0 ],
									"destination" : [ "obj-98", 1 ],
									"order" : 0,
									"source" : [ "obj-8", 0 ]
								}

							}
, 							{
								"patchline" : 								{
									"color" : [ 0.19999997317791, 0.199999943375587, 0.19999997317791, 1.0 ],
									"destination" : [ "obj-6", 1 ],
									"source" : [ "obj-81", 0 ]
								}

							}
, 							{
								"patchline" : 								{
									"color" : [ 0.059509769082069, 0.501929938793182, 0.998454749584198, 1.0 ],
									"destination" : [ "obj-86", 0 ],
									"source" : [ "obj-82", 0 ]
								}

							}
, 							{
								"patchline" : 								{
									"color" : [ 0.059509769082069, 0.501929938793182, 0.998454749584198, 1.0 ],
									"destination" : [ "obj-85", 0 ],
									"source" : [ "obj-84", 0 ]
								}

							}
, 							{
								"patchline" : 								{
									"color" : [ 0.059509769082069, 0.501929938793182, 0.998454749584198, 1.0 ],
									"destination" : [ "obj-67", 4 ],
									"source" : [ "obj-85", 0 ]
								}

							}
, 							{
								"patchline" : 								{
									"color" : [ 0.059509769082069, 0.501929938793182, 0.998454749584198, 1.0 ],
									"destination" : [ "obj-84", 0 ],
									"source" : [ "obj-86", 0 ]
								}

							}
, 							{
								"patchline" : 								{
									"color" : [ 0.059509769082069, 0.501929938793182, 0.998454749584198, 1.0 ],
									"destination" : [ "obj-88", 0 ],
									"source" : [ "obj-87", 0 ]
								}

							}
, 							{
								"patchline" : 								{
									"color" : [ 0.059509769082069, 0.501929938793182, 0.998454749584198, 1.0 ],
									"destination" : [ "obj-67", 3 ],
									"source" : [ "obj-88", 0 ]
								}

							}
, 							{
								"patchline" : 								{
									"color" : [ 0.059509769082069, 0.501929938793182, 0.998454749584198, 1.0 ],
									"destination" : [ "obj-87", 0 ],
									"source" : [ "obj-89", 0 ]
								}

							}
, 							{
								"patchline" : 								{
									"destination" : [ "obj-12", 0 ],
									"source" : [ "obj-9", 0 ]
								}

							}
, 							{
								"patchline" : 								{
									"color" : [ 0.19999997317791, 0.199999943375587, 0.19999997317791, 1.0 ],
									"destination" : [ "obj-42", 1 ],
									"source" : [ "obj-91", 0 ]
								}

							}
, 							{
								"patchline" : 								{
									"color" : [ 0.19999997317791, 0.199999943375587, 0.19999997317791, 1.0 ],
									"destination" : [ "obj-81", 1 ],
									"source" : [ "obj-92", 0 ]
								}

							}
, 							{
								"patchline" : 								{
									"color" : [ 0.065417610108852, 0.501814603805542, 0.251001805067062, 1.0 ],
									"destination" : [ "obj-2", 0 ],
									"source" : [ "obj-94", 0 ]
								}

							}
, 							{
								"patchline" : 								{
									"color" : [ 0.065417610108852, 0.501814603805542, 0.251001805067062, 1.0 ],
									"destination" : [ "obj-94", 0 ],
									"source" : [ "obj-95", 0 ]
								}

							}
, 							{
								"patchline" : 								{
									"color" : [ 0.059509769082069, 0.501929938793182, 0.998454749584198, 1.0 ],
									"destination" : [ "obj-100", 0 ],
									"source" : [ "obj-96", 0 ]
								}

							}
, 							{
								"patchline" : 								{
									"color" : [ 0.059509769082069, 0.501929938793182, 0.998454749584198, 1.0 ],
									"destination" : [ "obj-99", 0 ],
									"source" : [ "obj-98", 0 ]
								}

							}
, 							{
								"patchline" : 								{
									"color" : [ 0.059509769082069, 0.501929938793182, 0.998454749584198, 1.0 ],
									"destination" : [ "obj-67", 8 ],
									"source" : [ "obj-99", 0 ]
								}

							}
 ],
						"styles" : [ 							{
								"name" : "AudioStatus_Menu",
								"default" : 								{
									"bgfillcolor" : 									{
										"type" : "color",
										"color" : [ 0.294118, 0.313726, 0.337255, 1 ],
										"color1" : [ 0.454902, 0.462745, 0.482353, 0.0 ],
										"color2" : [ 0.290196, 0.309804, 0.301961, 1.0 ],
										"angle" : 270.0,
										"proportion" : 0.39,
										"autogradient" : 0
									}

								}
,
								"parentstyle" : "",
								"multi" : 0
							}
 ]
					}
,
					"patching_rect" : [ 180.5, 467.0, 118.0, 22.0 ],
					"saved_object_attributes" : 					{
						"exportfolder" : "Macintosh HD:/Users/lukedubois/Documents/TEACHING/nyu/idm/soundstudio/IDMPEDALS/pedals/",
						"exportname" : "Chorus2"
					}
,
					"text" : "gen~ @title Chorus2",
					"varname" : "Chorus2"
				}

			}
 ],
		"lines" : [ 			{
				"patchline" : 				{
					"destination" : [ "obj-83", 0 ],
					"hidden" : 1,
					"source" : [ "obj-1", 0 ]
				}

			}
, 			{
				"patchline" : 				{
					"destination" : [ "obj-12", 0 ],
					"source" : [ "obj-10", 0 ]
				}

			}
, 			{
				"patchline" : 				{
					"destination" : [ "obj-39", 0 ],
					"source" : [ "obj-12", 0 ]
				}

			}
, 			{
				"patchline" : 				{
					"destination" : [ "obj-28", 1 ],
					"midpoints" : [ 197.25, 664.5, 216.0, 664.5 ],
					"source" : [ "obj-14", 1 ]
				}

			}
, 			{
				"patchline" : 				{
					"destination" : [ "obj-28", 0 ],
					"source" : [ "obj-14", 0 ]
				}

			}
, 			{
				"patchline" : 				{
					"destination" : [ "obj-1", 0 ],
					"hidden" : 1,
					"source" : [ "obj-16", 0 ]
				}

			}
, 			{
				"patchline" : 				{
					"destination" : [ "obj-66", 0 ],
					"source" : [ "obj-2", 0 ]
				}

			}
, 			{
				"patchline" : 				{
					"destination" : [ "obj-22", 0 ],
					"source" : [ "obj-21", 0 ]
				}

			}
, 			{
				"patchline" : 				{
					"destination" : [ "obj-39", 0 ],
					"source" : [ "obj-22", 0 ]
				}

			}
, 			{
				"patchline" : 				{
					"destination" : [ "obj-73", 0 ],
					"source" : [ "obj-27", 0 ]
				}

			}
, 			{
				"patchline" : 				{
					"destination" : [ "obj-14", 1 ],
					"source" : [ "obj-39", 1 ]
				}

			}
, 			{
				"patchline" : 				{
					"destination" : [ "obj-14", 0 ],
					"source" : [ "obj-39", 0 ]
				}

			}
, 			{
				"patchline" : 				{
					"destination" : [ "obj-15", 0 ],
					"source" : [ "obj-39", 2 ]
				}

			}
, 			{
				"patchline" : 				{
					"destination" : [ "obj-39", 0 ],
					"source" : [ "obj-5", 0 ]
				}

			}
, 			{
				"patchline" : 				{
					"destination" : [ "obj-9", 0 ],
					"source" : [ "obj-6", 0 ]
				}

			}
, 			{
				"patchline" : 				{
					"destination" : [ "obj-39", 0 ],
					"source" : [ "obj-66", 0 ]
				}

			}
, 			{
				"patchline" : 				{
					"destination" : [ "obj-5", 0 ],
					"source" : [ "obj-7", 0 ]
				}

			}
, 			{
				"patchline" : 				{
					"destination" : [ "obj-39", 0 ],
					"source" : [ "obj-73", 0 ]
				}

			}
, 			{
				"patchline" : 				{
					"destination" : [ "obj-39", 0 ],
					"source" : [ "obj-8", 0 ]
				}

			}
, 			{
				"patchline" : 				{
					"destination" : [ "obj-39", 0 ],
					"source" : [ "obj-9", 0 ]
				}

			}
 ],
		"parameters" : 		{
			"obj-10" : [ "taps", "taps", 0 ],
			"obj-14" : [ "live.gain~", "live.gain~", 0 ],
			"obj-2" : [ "depth", "depth", 0 ],
			"obj-21" : [ "breadth", "breadth", 0 ],
			"obj-27" : [ "rate", "rate", 0 ],
			"obj-83::obj-32" : [ "live.text[2]", "FILTER", 0 ],
			"obj-83::obj-33" : [ "live.text[1]", "FILTER", 0 ],
			"obj-83::obj-34" : [ "live.text[3]", "FILTER", 0 ],
			"parameterbanks" : 			{

			}
,
			"inherited_shortname" : 1
		}
,
		"dependency_cache" : [ 			{
				"name" : "oopsy.ctrl.smooth3.gendsp",
				"bootpath" : "~/Documents/Max 8/Packages/oopsy/code",
				"patcherrelativepath" : "../../../../../../Max 8/Packages/oopsy/code",
				"type" : "gDSP",
				"implicit" : 1
			}
, 			{
				"name" : "oopsy.maxpat",
				"bootpath" : "~/Documents/Max 8/Packages/oopsy/patchers",
				"patcherrelativepath" : "../../../../../../Max 8/Packages/oopsy/patchers",
				"type" : "JSON",
				"implicit" : 1
			}
, 			{
				"name" : "oopsy.node4max.js",
				"bootpath" : "~/Documents/Max 8/Packages/oopsy/javascript",
				"patcherrelativepath" : "../../../../../../Max 8/Packages/oopsy/javascript",
				"type" : "TEXT",
				"implicit" : 1
			}
, 			{
				"name" : "oopsy.snoop.js",
				"bootpath" : "~/Documents/Max 8/Packages/oopsy/javascript",
				"patcherrelativepath" : "../../../../../../Max 8/Packages/oopsy/javascript",
				"type" : "TEXT",
				"implicit" : 1
			}
, 			{
				"name" : "swtoggle.gendsp",
				"bootpath" : "~/Documents/TEACHING/nyu/idm/soundstudio/IDMPEDALS/pedals",
				"patcherrelativepath" : ".",
				"type" : "gDSP",
				"implicit" : 1
			}
, 			{
				"name" : "testinput_bpatch.maxpat",
				"bootpath" : "~/Documents/TEACHING/nyu/idm/soundstudio/IDMPEDALS/pedals",
				"patcherrelativepath" : ".",
				"type" : "JSON",
				"implicit" : 1
			}
 ],
		"autosave" : 0,
		"styles" : [ 			{
				"name" : "AudioStatus_Menu",
				"default" : 				{
					"bgfillcolor" : 					{
						"type" : "color",
						"color" : [ 0.294118, 0.313726, 0.337255, 1 ],
						"color1" : [ 0.454902, 0.462745, 0.482353, 0.0 ],
						"color2" : [ 0.290196, 0.309804, 0.301961, 1.0 ],
						"angle" : 270.0,
						"proportion" : 0.39,
						"autogradient" : 0
					}

				}
,
				"parentstyle" : "",
				"multi" : 0
			}
 ]
	}

}
